<svg width="80" height="28" viewBox="0 0 80 28" fill="none" xmlns="http://www.w3.org/2000/svg">
<path d="M30.6014 21.0532V22.2395H28.9151V27.0345H27.5759V22.2395H25.8896V21.0532H30.6014Z" fill="white"/>
<path d="M46.2741 21.0532V26.985H44.9349V21.0532H46.2741Z" fill="white"/>
<path d="M24.2034 21.5477C24.4089 21.7256 24.5731 21.946 24.6845 22.1936C24.7958 22.4412 24.8517 22.71 24.8481 22.9813H23.5586C23.5594 22.8491 23.5321 22.7184 23.4787 22.5974C23.4252 22.4765 23.3468 22.3682 23.2485 22.2796C23.1502 22.1909 23.0343 22.124 22.9082 22.083C22.7822 22.0421 22.6489 22.0281 22.5171 22.042C21.9219 22.042 21.6243 22.3386 21.6243 22.7341C21.6243 23.9699 24.9969 22.9318 24.9969 25.2552C25.0019 25.5177 24.9409 25.7772 24.8197 26.0103C24.6984 26.2434 24.5207 26.4426 24.3026 26.5898C23.78 26.9499 23.1511 27.124 22.5171 27.0842C21.8907 27.125 21.2715 26.9311 20.7812 26.5404C20.5593 26.3627 20.3813 26.1366 20.2609 25.8794C20.1405 25.6223 20.0809 25.3411 20.0868 25.0574H21.4259C21.4259 25.6012 21.8227 25.9966 22.6163 25.9966C23.2114 25.9966 23.6578 25.7495 23.6578 25.2552C23.6578 24.0193 20.2852 25.008 20.2852 22.7341C20.2874 22.478 20.3463 22.2256 20.4577 21.9949C20.5692 21.7641 20.7305 21.5608 20.93 21.3994C21.3995 21.0464 21.9796 20.8712 22.5667 20.9051C23.1642 20.9523 23.7341 21.176 24.2034 21.5477Z" fill="white"/>
<path d="M59.1196 21.5477C59.3252 21.7256 59.4894 21.946 59.6007 22.1936C59.7121 22.4412 59.768 22.71 59.7644 22.9813H58.4749C58.4756 22.8491 58.4484 22.7184 58.3949 22.5974C58.3415 22.4765 58.2631 22.3682 58.1648 22.2796C58.0665 22.1909 57.9505 22.124 57.8245 22.083C57.6984 22.0421 57.5652 22.0281 57.4333 22.042C56.8382 22.042 56.5406 22.3386 56.5406 22.7341C56.5406 23.9699 59.9132 22.9318 59.9132 25.2552C59.9181 25.5177 59.8572 25.7772 59.7359 26.0103C59.6147 26.2434 59.4369 26.4426 59.2188 26.5898C58.6963 26.9499 58.0673 27.124 57.4333 27.0842C56.8069 27.125 56.1878 26.9311 55.6974 26.5404C55.4755 26.3627 55.2975 26.1366 55.1771 25.8794C55.0567 25.6223 54.9972 25.3411 55.0031 25.0574H56.3422C56.3422 25.6012 56.739 25.9966 57.5325 25.9966C58.1277 25.9966 58.5741 25.7495 58.5741 25.2552C58.5741 24.0193 55.2015 25.008 55.2015 22.7341C55.2036 22.478 55.2625 22.2256 55.374 21.9949C55.4855 21.7641 55.6467 21.5608 55.8462 21.3994C56.3157 21.0464 56.8958 20.8712 57.4829 20.9051C58.0805 20.9523 58.6503 21.176 59.1196 21.5477Z" fill="white"/>
<path d="M40.4712 21.0532C40.8804 21.04 41.2881 21.1074 41.6711 21.2516C42.0541 21.3958 42.4048 21.614 42.703 21.8935C42.9878 22.1672 43.2104 22.4985 43.3559 22.8652C43.5013 23.2319 43.5662 23.6253 43.5462 24.0191C43.5594 24.4121 43.4914 24.8036 43.3463 25.1693C43.2013 25.5349 42.9823 25.867 42.703 26.1447C42.0958 26.7014 41.2961 27.0026 40.4712 26.985H38.3385V21.0532H40.4712ZM40.4712 25.8975C40.7124 25.9021 40.9518 25.8561 41.174 25.7624C41.3961 25.6687 41.596 25.5295 41.7607 25.3538C41.9306 25.177 42.0622 24.9673 42.1475 24.7377C42.2329 24.5081 42.27 24.2636 42.2567 24.0191C42.27 23.7821 42.2327 23.545 42.1472 23.3234C42.0617 23.1018 41.9299 22.9009 41.7607 22.7339C41.5904 22.5689 41.3884 22.44 41.1668 22.355C40.9451 22.27 40.7085 22.2308 40.4712 22.2395H39.6776V25.8975H40.4712Z" fill="white"/>
<path d="M34.3708 27.0839C35.002 27.1 35.6181 26.8894 36.1067 26.4907C36.3536 26.258 36.5443 25.9725 36.6646 25.6557C36.7849 25.3389 36.8315 24.9991 36.801 24.6617V21.0532H35.4619V24.6617C35.4834 24.8141 35.4708 24.9693 35.4251 25.1162C35.3793 25.2631 35.3015 25.3981 35.1972 25.5115C35.0929 25.6249 34.9647 25.7139 34.8218 25.7721C34.6789 25.8303 34.5249 25.8562 34.3708 25.8481C33.6764 25.8481 33.2796 25.4526 33.2796 24.6617V21.0532H31.9405V24.6617C31.9099 24.9874 31.9518 25.3158 32.0631 25.6236C32.1744 25.9313 32.3524 26.2108 32.5845 26.4421C32.8166 26.6734 33.097 26.8508 33.4057 26.9618C33.7145 27.0727 34.044 27.1144 34.3708 27.0839Z" fill="white"/>
<path d="M50.7874 21.0038C51.6123 20.9863 52.412 21.2874 53.0192 21.8442C53.3079 22.1276 53.5359 22.4666 53.6894 22.8404C53.8428 23.2143 53.9185 23.6153 53.912 24.0192C53.928 24.4243 53.8566 24.8281 53.7026 25.2034C53.5486 25.5786 53.3156 25.9165 53.0192 26.1942C52.4175 26.7654 51.6183 27.084 50.7874 27.084C49.9564 27.084 49.1572 26.7654 48.5555 26.1942C48.2668 25.9107 48.0388 25.5718 47.8853 25.1979C47.7319 24.8241 47.6562 24.4231 47.6627 24.0192C47.6467 23.6141 47.7181 23.2103 47.8721 22.835C48.0261 22.4598 48.2591 22.1219 48.5555 21.8442C48.8537 21.5646 49.2044 21.3465 49.5874 21.2023C49.9704 21.0581 50.3782 20.9906 50.7874 21.0038ZM49.4978 22.7339C49.3323 22.9036 49.203 23.105 49.1177 23.3259C49.0325 23.5468 48.9931 23.7827 49.0019 24.0192C48.9885 24.2636 49.0257 24.5082 49.111 24.7378C49.1963 24.9674 49.328 25.177 49.4978 25.3539C49.6653 25.5259 49.8658 25.6627 50.0873 25.756C50.3088 25.8494 50.5468 25.8976 50.7874 25.8976C51.0279 25.8976 51.2659 25.8494 51.4874 25.756C51.7089 25.6627 51.9094 25.5259 52.0769 25.3539C52.2468 25.177 52.3784 24.9674 52.4637 24.7378C52.549 24.5082 52.5862 24.2636 52.5728 24.0192C52.5653 23.6676 52.4556 23.3257 52.2571 23.0349C52.0585 22.7441 51.7797 22.517 51.4542 22.381C51.1288 22.245 50.7708 22.2059 50.4236 22.2686C50.0763 22.3312 49.7548 22.4929 49.4978 22.7339Z" fill="white"/>
<path d="M80 16.3079L73.354 0.736664H64.5257L66.1624 10.8703L61.5003 0.736664H52.92L55.3007 14.034L48.3075 0.736664H40.3224L35.809 12.4027H25.6417L25.8896 10.3265H32.982L33.1804 7.01458H26.2864L26.5344 4.93842H36.1562L36.2058 0.736664H1.78549L0 4.98785H7.63794L3.71978 16.3573H11.5065L14.4823 4.98785H20.2356L18.0037 16.3573H40.2232L41.1655 13.5397H48.7539L50.0434 16.3573H61.1531L58.6733 5.33388L63.9802 16.3079H71.1221L69.7334 5.28444L73.8004 16.3079H80ZM42.5542 9.98052L44.4389 4.44409L47.018 9.98052H42.5542Z" fill="white"/>
</svg>
